<?xml version="1.0" encoding="UTF-8"?>
<svg id="Layer_2" data-name="Layer 2" xmlns="http://www.w3.org/2000/svg" viewBox="0 0 32 23.32">
  <defs>
    <style>
      .cls-1 {
        fill: #fff;
        fill-rule: evenodd;
        stroke-width: 0px;
      }
    </style>
  </defs>
  <path class="cls-1" d="m31.07,6.43l-11.77,9.96c-1.86,1.58-4.59,1.58-6.46,0L1.07,6.43v13.38c0,.8.32,1.56.88,2.12.56.56,1.33.88,2.12.88h24c.8,0,1.56-.32,2.12-.88.56-.56.88-1.33.88-2.12V6.43ZM1.07,3.81l13.06,11.05c1.12.95,2.76.95,3.88,0L31.07,3.81c0-.8-.32-1.56-.88-2.12-.56-.56-1.33-.88-2.12-.88H4.07c-.8,0-1.56.32-2.12.88-.56.56-.88,1.32-.88,2.12Z"/>
</svg>