<?xml version="1.0" encoding="UTF-8"?>
<svg id="Layer_2" data-name="Layer 2" xmlns="http://www.w3.org/2000/svg" viewBox="0 0 89.98 89.98">
  <defs>
    <style>
      .cls-1 {
        fill: #fff;
        fill-rule: evenodd;
        stroke-width: 0px;
      }
    </style>
  </defs>
  <path id="Phone" class="cls-1" d="m26.01,36.26c6.46,11.61,16.09,21.24,27.7,27.7l7.32-8.1c.46-.51,1.15-.68,1.77-.49h0s25.94,7.76,25.94,7.76c.79.24,1.29.99,1.23,1.78v23.33c0,.95-.77,1.72-1.72,1.72h0C39.51,89.98,0,50.46,0,1.73,0,.73.79-.04,1.88,0h23.31c.78,0,1.44.52,1.65,1.23h0s7.77,25.94,7.77,25.94c.21.71-.05,1.44-.6,1.86l-8,7.23h0Zm9.47,18.23c-5.22-5.22-9.67-11.21-13.16-17.78h0c-.36-.68-.23-1.55.37-2.09l8.3-7.5L23.9,3.45H3.48c.91,45.46,37.58,82.14,83.05,83.05v-20.42l-23.67-7.09-7.4,8.18c-.5.67-1.43.89-2.19.49-6.57-3.5-12.56-7.95-17.78-13.16Z"/>
</svg>